<svg version="1.1" id="Layer_1" xmlns="http://www.w3.org/2000/svg" xmlns:xlink="http://www.w3.org/1999/xlink" x="0px" y="0px"
	 width="100%" viewBox="0 0 512 512" enable-background="new 0 0 512 512" xml:space="preserve">
<path fill="#000000" opacity="1.000000" stroke="none" 
	d="
M513.000000,266.000000 
	C513.000000,313.020905 513.000000,360.041779 512.729736,407.850342 
	C510.311157,406.086090 508.392487,403.287689 505.969940,401.029968 
	C499.555237,395.051941 491.543213,397.266571 483.539307,397.091858 
	C475.384552,397.066498 467.693298,397.116852 459.538635,397.091553 
	C451.050293,397.065948 443.025330,397.116028 434.537018,397.090851 
	C424.716003,397.065979 415.358307,397.116364 405.537292,397.091370 
	C395.716156,397.066193 386.358276,397.116425 376.537109,397.091431 
	C365.716187,397.066345 355.358582,397.116486 344.537598,397.091553 
	C334.714539,397.066528 325.354858,397.116638 315.532166,397.091858 
	C297.380463,397.066833 279.691833,397.116699 261.539459,397.091736 
	C251.383728,397.066833 241.691727,397.116760 231.536377,397.091888 
	C220.715225,397.066895 210.357422,397.116730 199.536255,397.091858 
	C188.715057,397.067108 178.357208,397.117065 167.536026,397.092346 
	C156.714676,397.067200 146.356644,397.116760 135.535309,397.091858 
	C124.714348,397.067108 114.356689,397.116882 103.535706,397.092041 
	C90.381210,397.067291 77.690041,397.117157 64.535576,397.092316 
	C50.140305,397.011749 36.199184,397.309082 22.279716,396.889038 
	C13.593599,396.626892 7.196891,399.551666 2.904562,407.118958 
	C2.624002,407.613617 1.650943,407.715454 1.000002,408.000000 
	C1.000000,360.979095 1.000000,313.958221 1.270899,266.149689 
	C2.683942,266.900726 3.534816,268.857788 5.025599,269.895691 
	C8.746780,272.486481 12.644969,276.414276 16.675009,276.675507 
	C29.399973,277.500366 42.218037,276.888916 55.463379,276.908264 
	C70.617737,276.933350 85.308807,276.883392 100.463226,276.908295 
	C112.284370,276.933350 123.642143,276.883514 135.463257,276.908630 
	C147.950699,276.933441 159.974808,276.883270 172.462341,276.908020 
	C186.615829,276.933044 200.305923,276.883179 214.459793,276.908051 
	C224.947174,276.933075 234.970779,276.883331 245.458344,276.908203 
	C255.280319,276.933167 264.638306,276.883484 274.460083,276.908386 
	C282.951111,276.932739 290.978394,276.882538 299.468689,276.906952 
	C315.620850,276.932190 331.309967,276.882874 347.462646,276.907959 
	C356.951294,276.932648 365.976440,276.882874 375.464844,276.907593 
	C384.619751,276.932312 393.311401,276.882568 402.466156,276.907288 
	C411.287750,276.932098 419.646179,276.882477 428.467712,276.907532 
	C442.619598,276.932861 456.308350,276.883545 470.460510,276.908569 
	C476.949738,276.933044 482.975555,276.883148 489.453369,276.907715 
	C499.516724,278.076691 507.015656,275.008881 511.584412,266.058624 
	C511.689850,265.852051 512.512085,266.011353 513.000000,266.000000 
z"/>
<path fill="#000000" opacity="1.000000" stroke="none" 
	d="
M0.999999,248.000000 
	C1.000000,200.979111 1.000000,153.958206 1.270897,106.149689 
	C2.684012,106.901588 3.534481,108.860489 5.025910,109.898033 
	C8.749667,112.488541 12.676823,116.484772 16.678207,116.677284 
	C32.085373,117.418549 47.553669,116.889084 63.462574,116.908409 
	C76.617104,116.933342 89.308235,116.883263 102.462753,116.908188 
	C113.283836,116.933372 123.641533,116.883568 134.462646,116.908707 
	C144.950958,116.933441 154.975845,116.883240 165.464035,116.907990 
	C176.618271,116.933052 187.309219,116.883179 198.463501,116.908104 
	C209.284698,116.933029 219.642548,116.883163 230.463745,116.907959 
	C239.619904,116.932831 248.312729,116.883057 257.468597,116.907837 
	C275.287354,116.932564 292.643097,116.882736 310.462372,116.907494 
	C319.951813,116.932327 328.977692,116.882576 338.466736,116.907349 
	C355.284729,116.932716 371.639557,116.883560 388.458466,116.908737 
	C396.281342,116.933350 403.640106,116.883621 411.462402,116.908264 
	C420.616974,116.933144 429.308014,116.883652 438.462585,116.908691 
	C447.617279,116.933273 456.308441,116.883331 465.463074,116.907837 
	C473.618164,116.932610 481.309753,116.882942 489.453369,116.907738 
	C499.516632,118.076576 507.015686,115.009003 511.584381,106.058655 
	C511.689850,105.852074 512.512085,106.011360 513.000000,106.000000 
	C513.000000,153.020889 513.000000,200.041794 512.729736,247.850342 
	C507.161682,239.657928 499.587097,235.333633 488.538513,237.091064 
	C482.049408,237.065552 476.023254,237.115677 469.534058,237.090302 
	C455.382233,237.065582 441.693451,237.116348 427.540894,237.091736 
	C418.719055,237.066635 410.361053,237.116913 401.539612,237.091705 
	C392.384613,237.066452 383.693085,237.116669 374.538147,237.091599 
	C365.049530,237.066376 356.024323,237.116425 346.535828,237.091370 
	C330.383636,237.066742 314.694672,237.117203 298.541779,237.092621 
	C290.050659,237.067108 282.023468,237.116638 273.533203,237.091370 
	C263.711517,237.066559 254.352936,237.116501 244.531342,237.091690 
	C234.044220,237.066864 224.020096,237.116791 213.532867,237.092010 
	C199.379486,237.067169 185.689209,237.117035 171.535645,237.092285 
	C159.048218,237.067215 147.024078,237.116760 134.536530,237.091782 
	C122.715401,237.067032 111.357674,237.116821 99.536583,237.091888 
	C84.382164,237.067047 69.691124,237.116898 54.536697,237.092102 
	C43.467083,237.011627 32.847393,237.333267 22.258833,236.897827 
	C13.574074,236.540680 7.193278,239.566406 2.904067,247.121262 
	C2.623592,247.615280 1.650768,247.716217 0.999999,248.000000 
z"/>
<path fill="#000000" opacity="1.000000" stroke="none" 
	d="
M1.000001,88.000000 
	C1.000000,59.018494 1.000000,30.036987 1.000003,1.057164 
	C171.666672,1.058846 342.333344,1.058846 513.000000,1.058846 
	C513.000000,29.766024 513.000000,58.414352 512.729736,87.850342 
	C507.161713,79.657921 499.587128,75.333618 488.538147,77.091057 
	C480.383087,77.065804 472.691345,77.116203 464.536438,77.091019 
	C455.381836,77.065567 446.690460,77.115707 437.535828,77.090607 
	C428.381378,77.065613 419.690155,77.115860 410.535828,77.090767 
	C402.713318,77.065483 395.353912,77.115540 387.531494,77.090477 
	C370.713531,77.065964 354.358551,77.116570 337.539886,77.091980 
	C328.050446,77.066887 319.024628,77.116989 309.535583,77.092125 
	C291.716736,77.067009 274.361176,77.116867 256.541626,77.091843 
	C247.385223,77.066879 238.692810,77.116791 229.537018,77.091888 
	C218.715805,77.066948 208.357986,77.116821 197.536774,77.091995 
	C186.382538,77.067177 175.691681,77.117073 164.537323,77.092354 
	C154.048950,77.067245 144.024078,77.116745 133.535858,77.091705 
	C122.714798,77.067047 112.357079,77.116920 101.536026,77.092117 
	C88.381516,77.067154 75.690346,77.116882 62.535835,77.091995 
	C48.805847,77.011589 35.529308,77.314560 22.276049,76.890320 
	C13.590103,76.612274 7.196157,79.554108 2.904467,87.119370 
	C2.623932,87.613892 1.650910,87.715584 1.000001,88.000000 
z"/>
<path fill="#000000" opacity="1.000000" stroke="none" 
	d="
M513.000000,426.000000 
	C513.000000,454.981476 513.000000,483.962982 513.000000,512.942871 
	C342.333313,512.941284 171.666656,512.941284 1.000000,512.941284 
	C1.000000,484.234192 1.000000,455.585754 1.270905,426.149689 
	C2.684045,426.901764 3.534397,428.861115 5.025960,429.898590 
	C8.750276,432.489014 12.683164,436.498047 16.679056,436.677856 
	C32.755436,437.401306 48.887432,436.888824 65.462303,436.908051 
	C78.616829,436.933197 91.307938,436.883301 104.462463,436.908325 
	C115.283470,436.933441 125.641052,436.883575 136.462097,436.908691 
	C147.283493,436.933441 157.641418,436.883209 168.462769,436.907898 
	C179.283981,436.933014 189.641785,436.883240 200.463013,436.908142 
	C211.284180,436.933014 221.641953,436.883179 232.463135,436.907959 
	C242.618729,436.932892 252.310898,436.883148 262.466278,436.907990 
	C280.618042,436.932800 298.306610,436.883026 316.459167,436.907837 
	C326.282440,436.932709 335.641724,436.883026 345.464355,436.907837 
	C356.285278,436.932648 366.642822,436.882996 377.463806,436.907806 
	C387.285004,436.932617 396.642822,436.882965 406.463989,436.907745 
	C416.285034,436.932739 425.642670,436.883301 435.463715,436.908447 
	C443.952057,436.932922 451.977051,436.882843 460.465240,436.907257 
	C468.619904,436.931976 476.311310,436.882202 484.464355,436.907104 
	C486.081665,436.987335 487.246307,436.901276 488.391663,437.012909 
	C498.309082,437.979553 506.741699,435.866241 511.583649,426.059296 
	C511.684021,425.856018 512.511658,426.011749 513.000000,426.000000 
z"/>
<path fill="#83D5FF" opacity="1.000000" stroke="none" 
	d="
M64.998878,436.833008 
	C48.887432,436.888824 32.755436,437.401306 16.679056,436.677856 
	C12.683164,436.498047 8.750276,432.489014 5.025960,429.898590 
	C3.534397,428.861115 2.684045,426.901764 1.270905,425.681030 
	C1.000000,420.311951 1.000000,414.623932 1.000002,408.467957 
	C1.650943,407.715454 2.624002,407.613617 2.904562,407.118958 
	C7.196891,399.551666 13.593599,396.626892 22.279716,396.889038 
	C36.199184,397.309082 50.140305,397.011749 64.535858,397.550354 
	C64.999252,410.999725 64.999062,423.916351 64.998878,436.833008 
z"/>
<path fill="#83D5FF" opacity="1.000000" stroke="none" 
	d="
M1.000001,88.467941 
	C1.650910,87.715584 2.623932,87.613892 2.904467,87.119370 
	C7.196157,79.554108 13.590103,76.612274 22.276049,76.890320 
	C35.529308,77.314560 48.805847,77.011589 62.536064,77.550056 
	C62.999474,90.999619 62.999325,103.916504 62.999172,116.833405 
	C47.553669,116.889084 32.085373,117.418549 16.678207,116.677284 
	C12.676823,116.484772 8.749667,112.488541 5.025910,109.898033 
	C3.534481,108.860489 2.684012,106.901588 1.270897,105.681030 
	C1.000000,100.311958 1.000000,94.623917 1.000001,88.467941 
z"/>
<path fill="#83D5FF" opacity="1.000000" stroke="none" 
	d="
M0.999999,248.467941 
	C1.650768,247.716217 2.623592,247.615280 2.904067,247.121262 
	C7.193278,239.566406 13.574074,236.540680 22.258833,236.897827 
	C32.847393,237.333267 43.467083,237.011627 54.536774,237.550140 
	C55.000183,250.999649 55.000134,263.916443 55.000080,276.833191 
	C42.218037,276.888916 29.399973,277.500366 16.675009,276.675507 
	C12.644969,276.414276 8.746780,272.486481 5.025599,269.895691 
	C3.534816,268.857788 2.683942,266.900726 1.270899,265.681030 
	C1.000000,260.311951 1.000000,254.623917 0.999999,248.467941 
z"/>
<path fill="#E683FC" opacity="1.000000" stroke="none" 
	d="
M513.000000,425.532043 
	C512.511658,426.011749 511.684021,425.856018 511.583649,426.059296 
	C506.741699,435.866241 498.309082,437.979553 488.391663,437.012909 
	C487.246307,436.901276 486.081665,436.987335 484.463806,436.449066 
	C484.002014,423.000122 484.002411,410.083832 484.002808,397.167572 
	C491.543213,397.266571 499.555237,395.051941 505.969940,401.029968 
	C508.392487,403.287689 510.311157,406.086090 512.729736,408.319031 
	C513.000000,413.688049 513.000000,419.376068 513.000000,425.532043 
z"/>
<path fill="#E683FC" opacity="1.000000" stroke="none" 
	d="
M489.001495,237.166718 
	C499.587097,235.333633 507.161682,239.657928 512.729736,248.319000 
	C513.000000,253.688034 513.000000,259.376068 513.000000,265.532043 
	C512.512085,266.011353 511.689850,265.852051 511.584412,266.058624 
	C507.015656,275.008881 499.516724,278.076691 489.452881,276.449677 
	C489.000763,263.000366 489.001129,250.083542 489.001495,237.166718 
z"/>
<path fill="#E683FC" opacity="1.000000" stroke="none" 
	d="
M489.001495,77.166718 
	C499.587128,75.333618 507.161713,79.657921 512.729736,88.319000 
	C513.000000,93.688042 513.000000,99.376083 513.000000,105.532059 
	C512.512085,106.011360 511.689850,105.852074 511.584381,106.058655 
	C507.015686,115.009003 499.516632,118.076576 489.452881,116.449677 
	C489.000763,103.000336 489.001129,90.083527 489.001495,77.166718 
z"/>
<path fill="#B0B0FE" opacity="1.000000" stroke="none" 
	d="
M315.995178,436.833252 
	C298.306610,436.883026 280.618042,436.932800 262.465759,436.449951 
	C262.002380,423.000397 262.002777,410.083466 262.003174,397.166565 
	C279.691833,397.116699 297.380463,397.066833 315.532959,397.549927 
	C315.996246,410.999664 315.995697,423.916443 315.995178,436.833252 
z"/>
<path fill="#BAA8FD" opacity="1.000000" stroke="none" 
	d="
M299.005737,237.167664 
	C314.694672,237.117203 330.383636,237.066742 346.536072,237.549438 
	C346.999420,250.999588 346.999268,263.916565 346.999115,276.833527 
	C331.309967,276.882874 315.620850,276.932190 299.467651,276.448944 
	C299.004303,263.000122 299.005005,250.083893 299.005737,237.167664 
z"/>
<path fill="#89D0FF" opacity="1.000000" stroke="none" 
	d="
M55.463379,276.908264 
	C55.000134,263.916443 55.000183,250.999649 55.000156,237.624817 
	C69.691124,237.116898 84.382164,237.067047 99.536674,237.549957 
	C100.000046,250.999619 99.999962,263.916504 99.999870,276.833405 
	C85.308807,276.883392 70.617737,276.933350 55.463379,276.908264 
z"/>
<path fill="#D88FFC" opacity="1.000000" stroke="none" 
	d="
M428.004700,237.167114 
	C441.693451,237.116348 455.382233,237.065582 469.534363,237.548431 
	C469.997528,250.999435 469.997345,263.916840 469.997131,276.834229 
	C456.308350,276.883545 442.619598,276.932861 428.466797,276.449493 
	C428.003418,263.000244 428.004059,250.083694 428.004700,237.167114 
z"/>
<path fill="#9AC2FE" opacity="1.000000" stroke="none" 
	d="
M171.998932,237.166901 
	C185.689209,237.117035 199.379486,237.067169 213.533569,237.550064 
	C213.996918,250.999649 213.996460,263.916473 213.996002,276.833282 
	C200.305923,276.883179 186.615829,276.933044 172.462524,276.449982 
	C171.999161,263.000305 171.999039,250.083603 171.998932,237.166901 
z"/>
<path fill="#89D0FF" opacity="1.000000" stroke="none" 
	d="
M65.462303,436.908051 
	C64.999062,423.916351 64.999252,410.999725 64.999161,397.625031 
	C77.690041,397.117157 90.381210,397.067291 103.535927,397.550079 
	C103.999336,410.999603 103.999191,423.916504 103.999039,436.833374 
	C91.307938,436.883301 78.616829,436.933197 65.462303,436.908051 
z"/>
<path fill="#94C7FE" opacity="1.000000" stroke="none" 
	d="
M171.535645,237.092285 
	C171.999039,250.083603 171.999161,263.000305 171.999100,276.375061 
	C159.974808,276.883270 147.950699,276.933441 135.463287,276.450562 
	C134.999985,263.000458 134.999969,250.083389 134.999939,237.166321 
	C147.024078,237.116760 159.048218,237.067215 171.535645,237.092285 
z"/>
<path fill="#8ECCFF" opacity="1.000000" stroke="none" 
	d="
M134.536530,237.091797 
	C134.999969,250.083389 134.999985,263.000458 134.999969,276.375610 
	C123.642143,276.883514 112.284370,276.933350 100.463226,276.908295 
	C99.999962,263.916504 100.000046,250.999619 100.000046,237.624664 
	C111.357674,237.116821 122.715401,237.067032 134.536530,237.091797 
z"/>
<path fill="#8ECCFF" opacity="1.000000" stroke="none" 
	d="
M104.462463,436.908325 
	C103.999191,423.916504 103.999336,410.999603 103.999252,397.624695 
	C114.356689,397.116882 124.714348,397.067108 135.535690,397.549927 
	C135.999115,410.999542 135.998871,423.916595 135.998627,436.833679 
	C125.641052,436.883575 115.283470,436.933441 104.462463,436.908325 
z"/>
<path fill="#94C7FE" opacity="1.000000" stroke="none" 
	d="
M136.462097,436.908691 
	C135.998871,423.916595 135.999115,410.999542 135.998993,397.624390 
	C146.356644,397.116760 156.714676,397.067200 167.536224,397.550354 
	C167.999619,410.999725 167.999496,423.916351 167.999359,436.833008 
	C157.641418,436.883209 147.283493,436.933441 136.462097,436.908691 
z"/>
<path fill="#9AC2FE" opacity="1.000000" stroke="none" 
	d="
M168.462769,436.907898 
	C167.999496,423.916351 167.999619,410.999725 167.999557,397.625061 
	C178.357208,397.117065 188.715057,397.067108 199.536407,397.549927 
	C199.999817,410.999573 199.999710,423.916534 199.999603,436.833435 
	C189.641785,436.883240 179.283981,436.933014 168.462769,436.907898 
z"/>
<path fill="#A0BDFE" opacity="1.000000" stroke="none" 
	d="
M200.463013,436.908173 
	C199.999710,423.916534 199.999817,410.999573 199.999756,397.624573 
	C210.357422,397.116730 220.715225,397.066895 231.536484,397.549927 
	C231.999863,410.999634 231.999786,423.916473 231.999710,436.833313 
	C221.641953,436.883179 211.284180,436.933014 200.463013,436.908173 
z"/>
<path fill="#C1A2FD" opacity="1.000000" stroke="none" 
	d="
M377.000397,436.833344 
	C366.642822,436.882996 356.285278,436.932648 345.463989,436.449768 
	C345.000488,423.000366 345.000732,410.083527 345.000977,397.166656 
	C355.358582,397.116486 365.716187,397.066345 376.536896,397.549500 
	C377.000122,410.999634 377.000244,423.916473 377.000397,436.833344 
z"/>
<path fill="#A0BDFE" opacity="1.000000" stroke="none" 
	d="
M214.459793,276.908051 
	C213.996460,263.916473 213.996918,250.999649 213.996674,237.624771 
	C224.020096,237.116791 234.044220,237.066864 244.532288,237.549759 
	C244.995636,250.999573 244.994995,263.916565 244.994370,276.833557 
	C234.970779,276.883331 224.947174,276.933075 214.459793,276.908051 
z"/>
<path fill="#A7B8FE" opacity="1.000000" stroke="none" 
	d="
M232.463135,436.907959 
	C231.999786,423.916473 231.999863,410.999634 231.999817,397.624756 
	C241.691727,397.116760 251.383728,397.066833 261.539459,397.091736 
	C262.002777,410.083466 262.002380,423.000397 262.002563,436.375366 
	C252.310898,436.883148 242.618729,436.932892 232.463135,436.907959 
z"/>
<path fill="#BAA8FD" opacity="1.000000" stroke="none" 
	d="
M344.537598,397.091553 
	C345.000732,410.083527 345.000488,423.000366 345.000610,436.375305 
	C335.641724,436.883026 326.282440,436.932709 316.459167,436.907806 
	C315.995697,423.916443 315.996246,410.999664 315.996002,397.624817 
	C325.354858,397.116638 334.714539,397.066528 344.537598,397.091553 
z"/>
<path fill="#C99CFD" opacity="1.000000" stroke="none" 
	d="
M377.463806,436.907806 
	C377.000244,423.916473 377.000122,410.999634 377.000214,397.624695 
	C386.358276,397.116425 395.716156,397.066193 405.537048,397.549377 
	C406.000244,410.999634 406.000427,423.916473 406.000610,436.833313 
	C396.642822,436.882965 387.285004,436.932617 377.463806,436.907806 
z"/>
<path fill="#A7B8FE" opacity="1.000000" stroke="none" 
	d="
M245.458344,276.908203 
	C244.994995,263.916565 244.995636,250.999573 244.995300,237.624512 
	C254.352936,237.116501 263.711517,237.066559 273.533875,237.549469 
	C273.997162,250.999496 273.996735,263.916656 273.996307,276.833801 
	C264.638306,276.883484 255.280319,276.933167 245.458344,276.908203 
z"/>
<path fill="#D195FD" opacity="1.000000" stroke="none" 
	d="
M406.463989,436.907715 
	C406.000427,423.916473 406.000244,410.999634 406.000366,397.624786 
	C415.358307,397.116364 424.716003,397.065979 434.536865,397.548950 
	C435.000122,410.999481 435.000214,423.916687 435.000336,436.833893 
	C425.642670,436.883301 416.285034,436.932739 406.463989,436.907715 
z"/>
<path fill="#C1A2FD" opacity="1.000000" stroke="none" 
	d="
M347.462646,276.907959 
	C346.999268,263.916565 346.999420,250.999588 346.999329,237.624542 
	C356.024323,237.116425 365.049530,237.066376 374.537842,237.549652 
	C375.001160,250.999695 375.001343,263.916412 375.001556,276.833130 
	C365.976440,276.882874 356.951294,276.932648 347.462646,276.907959 
z"/>
<path fill="#C99CFD" opacity="1.000000" stroke="none" 
	d="
M375.464844,276.907593 
	C375.001343,263.916412 375.001160,250.999695 375.001282,237.624939 
	C383.693085,237.116669 392.384613,237.066452 401.539062,237.549744 
	C402.002319,250.999771 402.002655,263.916290 402.003021,276.832825 
	C393.311401,276.882568 384.619751,276.932312 375.464844,276.907593 
z"/>
<path fill="#D195FD" opacity="1.000000" stroke="none" 
	d="
M402.466156,276.907288 
	C402.002655,263.916290 402.002319,250.999771 402.002502,237.625214 
	C410.361053,237.116913 418.719055,237.066635 427.540894,237.091751 
	C428.004059,250.083694 428.003418,263.000244 428.003693,276.374817 
	C419.646179,276.882477 411.287750,276.932098 402.466156,276.907288 
z"/>
<path fill="#B0B0FE" opacity="1.000000" stroke="none" 
	d="
M274.460083,276.908386 
	C273.996735,263.916656 273.997162,250.999496 273.996948,237.624237 
	C282.023468,237.116638 290.050659,237.067108 298.541779,237.092621 
	C299.005005,250.083893 299.004303,263.000122 299.004639,276.374359 
	C290.978394,276.882538 282.951111,276.932739 274.460083,276.908386 
z"/>
<path fill="#D88FFC" opacity="1.000000" stroke="none" 
	d="
M435.463715,436.908447 
	C435.000214,423.916687 435.000122,410.999481 435.000183,397.624207 
	C443.025330,397.116028 451.050293,397.065948 459.538239,397.549622 
	C460.001465,410.999786 460.001740,423.916290 460.002014,436.832764 
	C451.977051,436.882843 443.952057,436.932922 435.463715,436.908447 
z"/>
<path fill="#E188FC" opacity="1.000000" stroke="none" 
	d="
M460.465240,436.907257 
	C460.001740,423.916290 460.001465,410.999786 460.001587,397.625275 
	C467.693298,397.116852 475.384552,397.066498 483.539307,397.091858 
	C484.002411,410.083832 484.002014,423.000122 484.002197,436.374420 
	C476.311310,436.882202 468.619904,436.931976 460.465240,436.907257 
z"/>
<path fill="#E188FC" opacity="1.000000" stroke="none" 
	d="
M470.460510,276.908569 
	C469.997345,263.916840 469.997528,250.999435 469.997437,237.623917 
	C476.023254,237.115677 482.049408,237.065552 488.538513,237.091064 
	C489.001129,250.083542 489.000763,263.000366 489.000885,276.375244 
	C482.975555,276.883148 476.949738,276.933044 470.460510,276.908569 
z"/>
<path fill="#B0B0FE" opacity="1.000000" stroke="none" 
	d="
M257.005615,77.166718 
	C274.361176,77.116867 291.716736,77.067009 309.535889,77.550156 
	C309.999237,90.999733 309.999023,103.916321 309.998810,116.832909 
	C292.643097,116.882736 275.287354,116.932564 257.467621,116.449783 
	C257.004272,103.000359 257.004944,90.083542 257.005615,77.166718 
z"/>
<path fill="#C1A2FD" opacity="1.000000" stroke="none" 
	d="
M338.003540,77.167168 
	C354.358551,77.116570 370.713531,77.065964 387.532440,77.548599 
	C387.995697,90.999367 387.995026,103.916885 387.994385,116.834404 
	C371.639557,116.883560 355.284729,116.932716 338.466125,116.449326 
	C338.002747,103.000244 338.003143,90.083702 338.003540,77.167168 
z"/>
<path fill="#89D0FF" opacity="1.000000" stroke="none" 
	d="
M63.462574,116.908401 
	C62.999325,103.916504 62.999474,90.999619 62.999397,77.624664 
	C75.690346,77.116882 88.381516,77.067154 101.536224,77.550163 
	C101.999626,90.999664 101.999496,103.916435 101.999367,116.833191 
	C89.308235,116.883263 76.617104,116.933342 63.462574,116.908401 
z"/>
<path fill="#9AC2FE" opacity="1.000000" stroke="none" 
	d="
M165.000824,77.166962 
	C175.691681,77.117073 186.382538,77.067177 197.536743,77.550041 
	C198.000107,90.999634 198.000137,103.916466 198.000168,116.833305 
	C187.309219,116.883179 176.618271,116.933052 165.463959,116.449951 
	C165.000687,103.000298 165.000748,90.083633 165.000824,77.166962 
z"/>
<path fill="#8ECCFF" opacity="1.000000" stroke="none" 
	d="
M102.462753,116.908188 
	C101.999496,103.916435 101.999626,90.999664 101.999557,77.624847 
	C112.357079,77.116920 122.714798,77.067047 133.536133,77.549789 
	C133.999588,90.999519 133.999405,103.916641 133.999222,116.833771 
	C123.641533,116.883568 113.283836,116.933372 102.462753,116.908188 
z"/>
<path fill="#A0BDFE" opacity="1.000000" stroke="none" 
	d="
M198.463501,116.908104 
	C198.000137,103.916466 198.000107,90.999634 198.000122,77.624741 
	C208.357986,77.116821 218.715805,77.066948 229.537048,77.549942 
	C230.000458,90.999634 230.000427,103.916466 230.000397,116.833298 
	C219.642548,116.883163 209.284698,116.933029 198.463501,116.908104 
z"/>
<path fill="#94C7FE" opacity="1.000000" stroke="none" 
	d="
M134.462646,116.908707 
	C133.999405,103.916641 133.999588,90.999519 133.999496,77.624313 
	C144.024078,77.116745 154.048950,77.067245 164.537323,77.092354 
	C165.000748,90.083633 165.000687,103.000298 165.000671,116.375000 
	C154.975845,116.883240 144.950958,116.933441 134.462646,116.908707 
z"/>
<path fill="#BAA8FD" opacity="1.000000" stroke="none" 
	d="
M337.539886,77.091980 
	C338.003143,90.083702 338.002747,103.000244 338.002930,116.374802 
	C328.977692,116.882576 319.951813,116.932327 310.462372,116.907494 
	C309.999023,103.916321 309.999237,90.999733 309.999146,77.625122 
	C319.024628,77.116989 328.050446,77.066887 337.539886,77.091980 
z"/>
<path fill="#A7B8FE" opacity="1.000000" stroke="none" 
	d="
M230.463745,116.907959 
	C230.000427,103.916466 230.000458,90.999634 230.000443,77.624756 
	C238.692810,77.116791 247.385223,77.066879 256.541626,77.091843 
	C257.004944,90.083542 257.004272,103.000359 257.004578,116.375229 
	C248.312729,116.883057 239.619904,116.932831 230.463745,116.907959 
z"/>
<path fill="#D195FD" opacity="1.000000" stroke="none" 
	d="
M410.998932,77.166107 
	C419.690155,77.115860 428.381378,77.065613 437.535736,77.548721 
	C437.998932,90.999435 437.999023,103.916801 437.999084,116.834160 
	C429.308014,116.883652 420.616974,116.933144 411.462463,116.450165 
	C410.998962,103.000504 410.998962,90.083305 410.998932,77.166107 
z"/>
<path fill="#D88FFC" opacity="1.000000" stroke="none" 
	d="
M438.462585,116.908691 
	C437.999023,103.916801 437.998932,90.999435 437.998962,77.623962 
	C446.690460,77.115707 455.381836,77.065567 464.536530,77.549088 
	C464.999756,90.999626 464.999695,103.916512 464.999603,116.833389 
	C456.308441,116.883331 447.617279,116.933273 438.462585,116.908691 
z"/>
<path fill="#E188FC" opacity="1.000000" stroke="none" 
	d="
M465.463074,116.907837 
	C464.999695,103.916512 464.999756,90.999626 464.999756,77.624680 
	C472.691345,77.116203 480.383087,77.065804 488.538147,77.091057 
	C489.001129,90.083527 489.000763,103.000336 489.000885,116.375214 
	C481.309753,116.882942 473.618164,116.932610 465.463074,116.907837 
z"/>
<path fill="#C99CFD" opacity="1.000000" stroke="none" 
	d="
M410.535828,77.090767 
	C410.998962,90.083305 410.998962,103.000504 410.998962,116.375793 
	C403.640106,116.883621 396.281342,116.933350 388.458466,116.908737 
	C387.995026,103.916885 387.995697,90.999367 387.995422,77.623718 
	C395.353912,77.115540 402.713318,77.065483 410.535828,77.090767 
z"/>
</svg>